<svg width="1987" height="624" viewBox="0 0 1987 624" fill="none" xmlns="http://www.w3.org/2000/svg">
<mask id="mask0" mask-type="alpha" maskUnits="userSpaceOnUse" x="0" y="0" width="1987" height="624">
<rect width="1987" height="624" fill="#C4C4C4"/>
</mask>
<g mask="url(#mask0)">
<g opacity="0.75">
<ellipse cx="1599.03" cy="536.383" rx="232.027" ry="180.011" fill="white"/>
<ellipse cx="1782.38" cy="589.069" rx="232.027" ry="180.011" fill="white"/>
<ellipse cx="2087.98" cy="611.021" rx="232.027" ry="180.011" fill="white"/>
<ellipse cx="1782.38" cy="589.069" rx="232.027" ry="180.011" fill="white"/>
<ellipse cx="1944.52" cy="431.011" rx="232.027" ry="180.011" fill="white"/>
<ellipse cx="1679.53" cy="409.058" rx="151.525" ry="136.929" fill="white"/>
</g>
<g opacity="0.75">
<ellipse cx="260.9" cy="345.724" rx="273.9" ry="173.827" fill="white"/>
<ellipse cx="788.099" cy="384.654" rx="273.9" ry="173.827" fill="white"/>
<ellipse cx="386.38" cy="210.827" rx="273.9" ry="173.827" fill="white"/>
<ellipse cx="661.684" cy="242.061" rx="185.878" ry="202.346" fill="white"/>
<ellipse cx="497.812" cy="384.654" rx="185.878" ry="202.346" fill="white"/>
</g>
<g opacity="0.5">
<ellipse cx="1269.17" cy="316.29" rx="275.174" ry="156.128" fill="white"/>
<ellipse cx="1798.83" cy="351.257" rx="275.174" ry="156.128" fill="white"/>
<ellipse cx="1395.24" cy="195.128" rx="275.174" ry="156.128" fill="white"/>
<ellipse cx="1671.82" cy="223.183" rx="186.742" ry="181.743" fill="white"/>
<ellipse cx="1507.19" cy="351.257" rx="186.742" ry="181.743" fill="white"/>
</g>
<g opacity="0.75">
<ellipse cx="-155.973" cy="497.383" rx="232.027" ry="180.011" fill="white"/>
<ellipse cx="27.3841" cy="550.069" rx="232.027" ry="180.011" fill="white"/>
<ellipse cx="332.981" cy="572.021" rx="232.027" ry="180.011" fill="white"/>
<ellipse cx="27.3841" cy="550.069" rx="232.027" ry="180.011" fill="white"/>
<ellipse cx="189.52" cy="392.011" rx="232.027" ry="180.011" fill="white"/>
<ellipse cx="-75.4714" cy="370.058" rx="151.525" ry="136.929" fill="white"/>
</g>
<ellipse cx="846.913" cy="472.58" rx="253.208" ry="164.496" fill="white"/>
<ellipse cx="982.404" cy="658.317" rx="253.208" ry="164.496" fill="white"/>
<ellipse cx="1159.62" cy="438.496" rx="253.208" ry="164.496" fill="white"/>
<ellipse cx="1278.63" cy="602.991" rx="253.208" ry="164.496" fill="white"/>
<ellipse cx="653.208" cy="637.076" rx="253.208" ry="164.496" fill="white"/>
</g>
</svg>
