<svg width="588" height="397" viewBox="0 0 588 397" fill="none" xmlns="http://www.w3.org/2000/svg">
<mask id="mask0" mask-type="alpha" maskUnits="userSpaceOnUse" x="0" y="0" width="588" height="397">
<rect width="588" height="397" fill="#C4C4C4"/>
</mask>
<g mask="url(#mask0)">
<path d="M227.064 209.397C228.355 205.361 230.855 203.135 234.565 202.718C238.408 202.286 241.361 202.893 243.424 204.54L249.836 261.58C250.684 269.133 252.517 274.696 255.334 278.271C258.151 281.845 261.613 283.402 265.721 282.94C278.176 281.54 282.951 267.921 280.047 242.084C280.09 241.274 281.039 240.765 282.894 240.556C285.279 240.288 286.866 243.666 287.656 250.688C288.921 261.95 287.483 271.236 283.34 278.544C279.33 285.838 272.952 289.976 264.207 290.959C250.825 292.463 241.284 287.565 235.586 276.264C233.68 281.979 230.719 286.673 226.704 290.344C222.689 294.016 217.899 296.164 212.334 296.79C189.146 299.396 175.847 285.528 172.437 255.186C170.709 239.816 173.014 228.085 179.349 219.993C185.818 211.887 195.014 207.163 206.939 205.823C216.082 204.795 222.79 205.987 227.064 209.397ZM196.848 277.197C199.359 282.818 201.895 286.29 204.459 287.612C207.008 288.801 210.27 289.172 214.245 288.726C218.22 288.279 222.251 285.344 226.337 279.92C230.541 274.349 232.196 267.588 231.303 259.638L228.242 232.41C227.542 226.182 225.32 221.334 221.576 217.863C217.964 214.378 214.104 212.867 209.997 213.328C206.022 213.775 202.886 214.53 200.591 215.593C198.295 216.656 196.229 218.566 194.392 221.321C190.556 226.583 189.531 237.163 191.318 253.063C192.495 263.531 194.338 271.575 196.848 277.197Z" fill="white"/>
<path d="M359.442 220.57C362.109 219.715 364.032 221.128 365.213 224.81C366.393 228.492 366.812 232.418 366.469 236.589C366.126 240.76 365.064 245.091 363.284 249.582C361.631 254.033 358.568 258.235 354.095 262.19C349.749 266.104 344.338 269.099 337.863 271.175C323.643 275.734 311.33 275.762 300.924 271.257C290.605 266.585 283.226 257.329 278.789 243.49C274.311 229.524 274.385 217.528 279.012 207.503C283.598 197.352 291.414 190.505 302.46 186.963C310.459 184.398 316.991 184.684 322.058 187.82C327.083 190.829 330.532 195.254 332.405 201.095C333.423 204.269 333.285 207.114 331.991 209.629C330.697 212.144 329.161 213.686 327.384 214.256C324.083 215.315 321.68 215.245 320.176 214.047C320.327 211.899 319.832 209.047 318.693 205.492C317.553 201.936 315.308 199.086 311.96 196.939C308.611 194.792 305.223 194.268 301.794 195.368C295.827 197.281 292.447 201.585 291.653 208.281C290.986 214.935 292.668 224.548 296.699 237.117C300.688 249.56 305.991 257.801 312.607 261.841C319.35 265.839 327.102 266.434 335.862 263.625C344.623 260.816 351.132 255.789 355.39 248.543C359.607 241.17 360.127 232.532 356.952 222.628C356.835 221.826 357.665 221.139 359.442 220.57Z" fill="white"/>
<path d="M447.444 165.382C449.545 164.221 452.303 166.734 455.72 172.919C461.072 182.606 463.206 191.709 462.124 200.228C461.041 208.747 456.59 215.166 448.771 219.486C440.951 223.805 432.88 224.913 424.558 222.808C416.171 220.586 409.247 216.185 403.785 209.606C397.77 217.194 390.341 223.735 381.495 229.231L391.746 247.788C391.482 250.066 389.89 252.012 386.973 253.623C384.055 255.235 381.237 255.649 378.52 254.866C375.737 253.966 373.379 251.765 371.445 248.263L322.994 160.556C314.613 145.384 310.012 133.607 309.19 125.226C308.304 116.729 312.004 110.191 320.291 105.613C324.726 103.164 329.2 103.129 333.714 105.51C338.228 107.891 342.387 112.524 346.191 119.41C353.089 131.898 353.639 148.197 347.841 168.308L357.125 185.115C357.026 172.527 362.753 163.041 374.307 156.658C381.66 152.597 388.618 151.267 395.18 152.668C401.859 154.005 407.037 158 410.711 164.652C415.676 173.639 416.176 183.644 412.213 194.669C416.729 201.466 422.434 206.692 429.328 210.348C436.157 213.887 442.431 214.077 448.15 210.917C452.585 208.468 454.863 203.63 454.984 196.403C455.041 189.061 451.845 179.554 445.398 167.883C445.128 167.118 445.81 166.284 447.444 165.382ZM395.402 173.338C392.695 168.436 389.549 165.223 385.965 163.699C382.317 162.059 378.859 162.141 375.591 163.946C369.172 167.492 365.589 173.965 364.841 183.365C364.21 192.701 368.504 205.714 377.723 222.403C387.18 215.808 393.506 207.82 396.702 198.439C399.833 188.941 399.4 180.574 395.402 173.338ZM343.199 159.905C345.462 145.251 343.917 133.08 338.566 123.393C333.215 113.706 328.439 110.023 324.237 112.344C321.903 113.634 321.869 117.156 324.134 122.912C326.4 128.667 332.754 140.998 343.199 159.905Z" fill="white"/>
<path d="M476.078 148.523C470.803 150.547 465.484 152.521 460.122 154.443C454.776 156.178 449.48 156.734 444.233 156.112C438.987 155.489 434.424 152.89 430.545 148.312C426.58 143.633 425.526 138.059 427.384 131.591C429.156 125.02 434.111 118.287 442.249 111.39C450.488 104.408 458.103 100.401 465.094 99.3695C472.186 98.2521 477.328 99.5752 480.517 103.339C482.069 105.17 482.607 107.248 482.131 109.574C481.757 111.813 480.909 113.493 479.587 114.614C477.044 116.769 474.848 117.581 473 117.05C473.007 115.821 472.148 114.189 470.424 112.155C468.614 110.019 465.399 109.423 460.78 110.366C456.162 111.309 451.92 113.418 448.054 116.694C444.189 119.97 441.589 123.398 440.253 126.977C438.917 130.556 439.498 133.82 441.998 136.77C444.412 139.618 447.948 140.903 452.607 140.626C457.367 140.262 462.385 139.068 467.66 137.044C473.037 134.933 478.45 132.968 483.898 131.147C489.448 129.24 494.94 128.605 500.374 129.243C505.824 129.693 510.402 132.105 514.109 136.478C519.626 142.988 520.916 150.284 517.978 158.367C515.056 166.261 508.967 174.131 499.711 181.976C490.556 189.734 480.839 193.426 470.558 193.05C460.293 192.487 451.799 188.238 445.075 180.304C442.661 177.456 441.324 174.744 441.063 172.169C440.803 169.593 441.385 167.702 442.809 166.495C445.453 164.253 447.367 163.418 448.55 163.989L449.243 164.188C449.926 166.231 451.215 168.371 453.112 170.609C458.888 177.424 465.656 181.388 473.416 182.502C481.176 183.615 488.565 181.198 495.583 175.25C506.365 166.112 508.574 157.685 502.211 149.97C497.297 144.172 488.586 143.69 476.078 148.523Z" fill="white"/>
<path d="M99.0884 175.608C98.8442 169.213 97.1113 163.917 93.8898 159.719C90.8008 155.508 86.8221 152.397 81.9538 150.386C77.2181 148.361 71.9623 146.66 66.1865 145.284C60.4107 143.908 54.6349 142.532 48.8592 141.155C43.0783 139.646 37.7486 137.752 32.8701 135.475C28.1191 133.051 24.1226 129.473 20.8808 124.743C17.7714 119.999 16.0794 114.029 15.8047 106.834C15.3315 94.4431 19.4667 84.2249 28.2101 76.1794C37.0862 68.1194 48.6154 63.3152 62.7978 61.7668C77.1127 60.2039 88.6363 62.2237 97.3685 67.8262C106.101 73.4286 110.614 80.0937 110.909 87.8214C111.113 93.1508 110.205 97.2637 108.186 100.16C106.295 102.908 103.957 104.435 101.174 104.739C96.0045 105.303 92.6527 104.665 91.1184 102.826L90.4837 101.892C91.7431 100.015 92.2786 96.6119 92.0904 91.6822C91.8004 84.0877 88.3929 78.506 81.8679 74.937C75.3378 71.2348 67.8313 69.8468 59.3484 70.7729C50.998 71.6846 44.4572 74.6732 39.726 79.7386C34.9947 84.8041 32.7538 90.6011 33.0031 97.1296C33.2524 103.658 34.919 108.962 38.0029 113.04C41.2142 116.971 45.2515 119.875 50.1147 121.752C54.9779 123.63 60.2949 125.19 66.0656 126.433C71.9688 127.661 77.8134 129.097 83.5994 130.74C89.5128 132.235 94.9164 134.321 99.8101 136.997C104.699 139.541 108.711 143.518 111.845 148.929C115.113 154.325 116.901 161.087 117.212 169.215C117.756 183.471 113.137 194.946 103.353 203.64C93.5696 212.335 81.0565 217.514 65.8138 219.178C50.7035 220.828 37.3677 218.404 25.8062 211.906C14.3722 205.26 8.43136 196.075 7.98365 184.351C7.77506 178.888 8.67262 174.509 10.6763 171.213C12.675 167.783 15.1323 165.91 18.0483 165.591C23.2176 165.027 26.5643 165.531 28.0884 167.104L28.723 168.038C27.6573 171.499 27.216 175.628 27.3992 180.425C27.7451 189.485 31.6929 197.014 39.2423 203.014C46.9244 208.998 56.73 211.339 68.6591 210.037C77.2745 209.096 84.5826 205.288 90.5833 198.612C96.579 191.803 99.414 184.135 99.0884 175.608Z" fill="white"/>
<path d="M111.848 97.5094C110.569 93.7192 110.551 90.537 111.793 87.963C112.993 85.2626 115.035 83.3919 117.919 82.3508C120.804 81.3097 123.422 81.3567 125.775 82.4918L135.235 110.539L161.008 101.238C163.642 100.287 165.505 100.181 166.599 100.921C167.817 101.614 168.832 103.162 169.641 105.562L137.472 117.172L153.58 164.929C155.924 171.877 159.679 176.545 164.845 178.932C170.137 181.274 175.354 181.517 180.496 179.661C188.272 176.855 192.998 171.89 194.675 164.765C196.352 157.641 194.995 147.572 190.606 134.559C190.601 133.711 191.414 132.992 193.044 132.404C195.302 131.589 197.56 134.53 199.818 141.226C203.27 151.459 203.554 160.852 200.671 169.404C197.913 177.91 191.266 184.065 180.731 187.867C170.197 191.669 160.919 191.9 152.899 188.559C144.878 185.218 139.014 178.051 135.307 167.06L111.848 97.5094Z" fill="white"/>
<path d="M223.688 72.3569C222.962 68.233 224.171 65.1646 227.315 63.1518C230.571 61.067 233.513 60.2913 236.141 60.8246L268.593 108.17C272.89 114.439 277.142 118.521 281.349 120.416C285.557 122.312 289.401 122.145 292.882 119.917C303.438 113.159 301.366 99.0578 286.666 77.612C286.326 76.8803 286.942 76.0112 288.514 75.0048C290.536 73.7108 293.544 75.9782 297.539 81.8071C303.947 91.1552 306.995 99.9637 306.685 108.232C306.487 116.429 302.682 122.9 295.271 127.645C283.929 134.905 273.051 134.828 262.636 127.412C263.593 133.287 263.123 138.73 261.227 143.742C259.33 148.754 256.024 152.769 251.308 155.788C231.656 168.369 213.199 162.066 195.936 136.881C187.192 124.124 183.779 112.78 185.697 102.849C187.727 92.8464 193.795 84.6101 203.901 78.1403C211.65 73.1801 218.245 71.2523 223.688 72.3569ZM228.205 145.419C233.094 149.251 237.001 151.181 239.927 151.206C242.777 151.122 245.887 150.002 249.256 147.845C252.625 145.688 254.88 141.317 256.021 134.732C257.199 127.965 255.526 121.282 251.003 114.684L235.512 92.083C231.969 86.914 227.701 83.6334 222.708 82.2412C217.826 80.7771 213.645 81.1594 210.164 83.3879C206.795 85.5445 204.326 87.5997 202.757 89.5536C201.188 91.5074 200.222 94.1042 199.857 97.344C198.865 103.676 202.892 113.44 211.938 126.637C217.894 135.326 223.316 141.586 228.205 145.419Z" fill="white"/>
<path d="M311.389 65.2484L336.144 85.2088C336.681 87.3491 335.804 89.6301 333.514 92.0517C331.223 94.4734 328.612 95.783 325.681 95.9806C322.646 96.0946 319.571 94.8961 316.457 92.3854L257.294 44.6814C256.757 42.5411 257.634 40.2601 259.924 37.8384C262.215 35.4168 264.878 34.149 267.913 34.0351C270.844 33.8375 273.867 34.994 276.98 37.5048L288.813 47.0456C280.524 31.8246 280.41 19.952 288.473 11.4278C294.245 5.32528 300.225 2.29221 306.411 2.32861C312.493 2.28131 317.922 4.18257 322.696 8.03236C325.291 10.1246 326.68 12.525 326.862 15.2333C327.045 17.9417 326.495 19.9739 325.212 21.33C322.83 23.8485 320.65 24.9931 318.671 24.7637C317.664 22.9272 315.707 20.8372 312.801 18.4939C309.895 16.1505 306.377 14.9366 302.249 14.8521C298.121 14.7677 294.82 16.0332 292.346 18.6485C288.04 23.2012 288.609 30.9167 294.054 41.7951C299.487 52.4929 305.265 60.3106 311.389 65.2484Z" fill="white"/>
<path d="M205.086 337.369L204.41 342.684L209.193 342.282L209.71 348.42L203.611 348.933L202.81 355.143L196.432 355.68L197.234 349.471L190.617 350.028L189.816 356.237L183.438 356.774L184.24 350.565L178.341 351.062L177.824 344.924L185.038 344.316L185.714 339L179.935 339.487L179.418 333.349L186.473 332.755L187.251 326.748L193.629 326.211L192.85 332.218L199.467 331.66L200.245 325.654L206.623 325.117L205.844 331.123L210.787 330.707L211.304 336.845L205.086 337.369ZM198.708 337.906L192.092 338.463L191.416 343.779L198.032 343.222L198.708 337.906Z" fill="#C49DCE"/>
<path d="M237.128 336.214C238.788 336.314 240.201 336.923 241.368 338.042C242.531 339.134 243.233 340.484 243.476 342.092C243.826 344.413 243.287 346.382 241.859 348C240.454 349.587 238.301 350.6 235.4 351.038L222.467 352.989L218.277 325.223L230.776 323.338C233.597 322.912 235.896 323.226 237.673 324.279C239.477 325.328 240.545 326.96 240.88 329.175C241.126 330.81 240.896 332.234 240.189 333.446C239.509 334.655 238.488 335.577 237.128 336.214ZM226.735 335.436L231.165 334.767C232.273 334.6 233.081 334.236 233.589 333.673C234.12 333.081 234.314 332.31 234.171 331.361C234.027 330.411 233.615 329.732 232.933 329.323C232.277 328.909 231.395 328.786 230.288 328.953L225.858 329.622L226.735 335.436ZM233.39 345.758C234.524 345.587 235.356 345.205 235.887 344.613C236.44 343.99 236.643 343.191 236.496 342.215C236.349 341.24 235.904 340.525 235.161 340.07C234.445 339.612 233.52 339.469 232.386 339.64L227.481 340.38L228.407 346.51L233.39 345.758Z" fill="#C49DCE"/>
<path d="M254.951 319.071L258.427 335.507C258.775 337.151 259.447 338.331 260.443 339.047C261.439 339.763 262.72 339.955 264.286 339.624C265.851 339.293 266.957 338.596 267.605 337.532C268.252 336.469 268.402 335.115 268.054 333.472L264.578 317.035L271.27 315.62L274.738 332.017C275.257 334.47 275.173 336.654 274.488 338.571C273.803 340.487 272.665 342.064 271.073 343.3C269.507 344.53 267.641 345.375 265.476 345.832C263.31 346.29 261.278 346.284 259.38 345.813C257.502 345.311 255.888 344.317 254.538 342.83C253.182 341.318 252.245 339.336 251.727 336.883L248.259 320.486L254.951 319.071Z" fill="#C49DCE"/>
<path d="M287.021 311.573L294.069 338.754L287.448 340.47L280.4 313.289L287.021 311.573Z" fill="#C49DCE"/>
<path d="M308.985 329.056L317.568 326.485L319.083 331.543L303.948 336.076L295.891 309.177L302.443 307.214L308.985 329.056Z" fill="#C49DCE"/>
<path d="M328.388 298.759C331.174 297.76 333.807 297.439 336.286 297.796C338.766 298.154 340.93 299.134 342.78 300.737C344.646 302.306 346.047 304.396 346.983 307.006C347.91 309.592 348.156 312.096 347.722 314.518C347.312 316.931 346.251 319.068 344.539 320.928C342.851 322.78 340.627 324.201 337.866 325.191L327.963 328.742L318.485 302.31L328.388 298.759ZM335.453 319.767C337.888 318.894 339.545 317.549 340.423 315.733C341.302 313.916 341.304 311.791 340.431 309.356C339.558 306.921 338.201 305.269 336.359 304.399C334.518 303.53 332.38 303.532 329.945 304.405L326.895 305.498L332.404 320.861L335.453 319.767Z" fill="#C49DCE"/>
<path d="M356.479 287.915L367.167 313.881L360.842 316.484L350.154 290.518L356.479 287.915Z" fill="#C49DCE"/>
<path d="M399.402 299.319L393.206 302.218L375.505 291.377L382.844 307.065L376.649 309.964L364.75 284.529L370.945 281.631L388.681 292.544L381.307 276.783L387.503 273.885L399.402 299.319Z" fill="#C49DCE"/>
<path d="M416.351 268.564C415.458 267.989 414.475 267.722 413.403 267.763C412.341 267.767 411.249 268.077 410.126 268.693C408.186 269.757 406.983 271.253 406.519 273.18C406.042 275.083 406.387 277.099 407.554 279.227C408.798 281.495 410.38 282.939 412.301 283.558C414.233 284.141 416.274 283.843 418.425 282.663C419.898 281.856 420.932 280.802 421.528 279.503C422.146 278.19 422.305 276.704 422.003 275.045L414.392 279.218L411.969 274.799L425.016 267.645L428.074 273.222C428.45 274.962 428.453 276.77 428.083 278.645C427.736 280.508 426.962 282.286 425.761 283.979C424.56 285.671 422.931 287.081 420.873 288.21C418.441 289.543 415.978 290.209 413.484 290.208C411 290.171 408.701 289.501 406.587 288.196C404.497 286.879 402.785 285.005 401.451 282.573C400.118 280.141 399.458 277.69 399.472 275.219C399.496 272.712 400.167 270.413 401.484 268.322C402.788 266.208 404.656 264.485 407.088 263.151C410.034 261.536 412.904 260.89 415.697 261.214C418.513 261.525 420.941 262.763 422.98 264.93L416.351 268.564Z" fill="#C49DCE"/>
<path d="M447.447 255.432C449.008 254.858 450.547 254.85 452.064 255.408C453.567 255.943 454.752 256.898 455.618 258.275C456.869 260.261 457.164 262.281 456.504 264.335C455.852 266.353 454.285 268.143 451.803 269.706L440.734 276.676L425.772 252.914L436.468 246.179C438.883 244.658 441.115 244.025 443.165 244.278C445.238 244.517 446.871 245.584 448.065 247.48C448.946 248.879 449.305 250.275 449.143 251.669C449.004 253.049 448.438 254.303 447.447 255.432ZM437.613 258.882L441.404 256.495C442.352 255.898 442.946 255.24 443.187 254.522C443.436 253.766 443.305 252.982 442.793 252.17C442.282 251.357 441.631 250.9 440.842 250.798C440.076 250.682 439.219 250.923 438.271 251.519L434.48 253.906L437.613 258.882ZM447.846 265.674C448.816 265.063 449.426 264.38 449.675 263.625C449.932 262.832 449.798 262.019 449.272 261.184C448.747 260.349 448.053 259.872 447.19 259.753C446.35 259.62 445.445 259.859 444.475 260.47L440.277 263.113L443.581 268.36L447.846 265.674Z" fill="#C49DCE"/>
<path d="M479.422 251.015L468.516 245.768L467.18 246.719L473.329 255.354L467.757 259.321L451.469 236.448L460.82 229.789C462.623 228.505 464.379 227.73 466.087 227.463C467.818 227.18 469.392 227.368 470.811 228.027C472.214 228.665 473.395 229.657 474.354 231.004C475.437 232.524 475.97 234.191 475.951 236.005C475.955 237.803 475.298 239.547 473.982 241.238L485.71 246.537L479.422 251.015ZM464.373 242.777L467.826 240.317C468.847 239.59 469.43 238.799 469.574 237.944C469.739 237.073 469.497 236.181 468.847 235.269C468.229 234.4 467.481 233.902 466.604 233.773C465.748 233.629 464.81 233.921 463.789 234.648L460.335 237.107L464.373 242.777Z" fill="#C49DCE"/>
<path d="M481.795 214.051L499.063 236.194L493.669 240.401L476.401 218.258L481.795 214.051Z" fill="#C49DCE"/>
<path d="M496.852 201.701C499.1 199.775 501.446 198.537 503.89 197.988C506.334 197.438 508.706 197.583 511.005 198.422C513.307 199.224 515.361 200.677 517.165 202.783C518.953 204.869 520.075 207.121 520.531 209.539C521.008 211.939 520.778 214.314 519.841 216.663C518.924 218.994 517.351 221.114 515.124 223.022L507.136 229.868L488.864 208.546L496.852 201.701ZM510.938 218.814C512.902 217.13 513.971 215.284 514.145 213.274C514.318 211.263 513.564 209.276 511.88 207.312C510.197 205.348 508.34 204.288 506.31 204.131C504.28 203.975 502.282 204.738 500.318 206.421L497.858 208.53L508.478 220.922L510.938 218.814Z" fill="#C49DCE"/>
<path d="M533.587 180.02C532.573 179.704 531.554 179.709 530.531 180.034C529.509 180.322 528.539 180.912 527.622 181.804C526.035 183.348 525.275 185.11 525.342 187.091C525.391 189.053 526.261 190.903 527.953 192.643C529.757 194.497 531.667 195.466 533.683 195.551C535.7 195.597 537.588 194.765 539.347 193.055C540.551 191.883 541.267 190.592 541.494 189.181C541.74 187.751 541.496 186.277 540.763 184.758L534.541 190.81L531.027 187.198L541.693 176.822L546.127 181.381C546.954 182.958 547.439 184.699 547.583 186.606C547.745 188.494 547.473 190.414 546.768 192.365C546.062 194.317 544.868 196.111 543.186 197.747C541.198 199.681 539.002 200.98 536.598 201.644C534.194 202.271 531.799 202.238 529.414 201.545C527.048 200.834 524.898 199.484 522.964 197.496C521.03 195.508 519.74 193.321 519.094 190.936C518.449 188.514 518.482 186.119 519.194 183.753C519.887 181.368 521.227 179.208 523.215 177.274C525.623 174.931 528.217 173.543 530.995 173.11C533.792 172.659 536.462 173.205 539.006 174.748L533.587 180.02Z" fill="#C49DCE"/>
<path d="M547.2 160.981L551.382 164.824L557.58 158.08L561.468 161.653L555.27 168.397L559.805 172.565L566.815 164.937L570.85 168.646L559.211 181.31L538.537 162.309L550.176 149.645L554.21 153.353L547.2 160.981Z" fill="#C49DCE"/>
<path d="M584.094 153.568C582.783 155.148 581.352 156.351 579.8 157.178C578.248 158.004 576.654 158.379 575.019 158.304C573.4 158.209 571.866 157.594 570.416 156.46L575.064 150.858C575.933 151.44 576.778 151.673 577.601 151.559C578.403 151.427 579.119 150.982 579.749 150.223C580.396 149.443 580.733 148.683 580.758 147.942C580.764 147.184 580.448 146.541 579.812 146.013C579.278 145.57 578.684 145.389 578.028 145.469C577.39 145.528 576.737 145.731 576.068 146.077C575.417 146.403 574.547 146.929 573.46 147.655C571.871 148.693 570.495 149.474 569.332 149.999C568.168 150.524 566.902 150.755 565.533 150.694C564.164 150.632 562.802 150.039 561.447 148.915C559.436 147.246 558.471 145.215 558.551 142.821C558.611 140.411 559.611 138.036 561.552 135.696C563.528 133.315 565.694 131.873 568.052 131.37C570.39 130.849 572.617 131.381 574.734 132.964L570.009 138.659C569.277 138.121 568.521 137.926 567.739 138.075C566.937 138.206 566.229 138.641 565.616 139.38C565.089 140.016 564.837 140.674 564.863 141.353C564.867 142.016 565.188 142.611 565.824 143.139C566.522 143.718 567.338 143.841 568.273 143.507C569.208 143.174 570.48 142.497 572.089 141.476C573.719 140.472 575.107 139.718 576.253 139.214C577.417 138.689 578.672 138.449 580.021 138.494C581.37 138.539 582.691 139.098 583.984 140.171C585.215 141.192 586.07 142.438 586.547 143.909C587.042 145.359 587.093 146.926 586.701 148.61C586.308 150.294 585.439 151.947 584.094 153.568Z" fill="#C49DCE"/>
<path d="M136.145 212.173C135.798 208.188 136.534 205.113 138.353 202.947C140.16 200.648 142.525 199.371 145.447 199.116C148.369 198.862 150.974 199.571 153.261 201.246L162.742 310.033L180.475 308.488C182.733 308.291 184.512 308.739 185.811 309.83C187.232 310.777 188.018 312.114 188.168 313.84C188.319 315.567 187.849 317.08 186.757 318.38L163.645 320.394L166.944 358.251C167.291 362.236 166.555 365.311 164.737 367.477C162.929 369.776 160.565 371.053 157.642 371.308C154.72 371.562 152.115 370.852 149.828 369.178L145.713 321.957L87.3341 327.044L88.3065 338.202C89.7534 354.806 88.312 367.445 83.9822 376.121C79.6523 384.796 71.975 389.614 60.9501 390.575C54.3086 391.154 48.943 389.48 44.8533 385.554C40.7637 381.627 38.3774 375.745 37.6944 367.908C36.6063 355.422 39.1079 344.966 45.1993 336.538C51.4234 328.099 59.2364 322.534 68.6381 319.84L61.3627 236.357C61.0154 232.372 61.7512 229.296 63.57 227.13C65.3773 224.831 67.742 223.555 70.6643 223.3C73.5865 223.045 76.1913 223.755 78.4787 225.43L86.4486 316.883L144.827 311.795L136.145 212.173ZM46.9118 367.707C47.3516 372.755 48.75 376.514 51.1068 378.986C53.5964 381.446 56.8336 382.502 60.8185 382.155C64.9363 381.796 67.8753 378.662 69.6357 372.754C71.396 366.845 71.6886 356.38 70.5133 341.359L69.541 330.201C62.1202 332.588 56.2851 337.045 52.0357 343.571C47.7863 350.098 46.0783 358.144 46.9118 367.707Z" fill="white"/>
</g>
</svg>
