<svg xmlns="http://www.w3.org/2000/svg" width="810" viewBox="0 0 810 810" height="810" version="1.0"><g fill="#FFF"><g><g><path d="M 150.363281 -186.917969 C 151.300781 -198.546875 145.347656 -208.121094 133.414062 -208.496094 C 114.097656 -209.105469 101.777344 -188.167969 101.148438 -168.28125 C 101.066406 -165.726562 101.277344 -163.445312 101.484375 -160.878906 C 97.78125 -160.710938 93.792969 -160.550781 89.25 -160.695312 C 56.863281 -161.71875 33.722656 -176.382812 20.71875 -205.800781 C 19.652344 -208.109375 17.699219 -209.308594 15.425781 -209.378906 C 13.15625 -209.453125 9.40625 -207.863281 9.28125 -203.886719 C 9.246094 -202.75 9.503906 -201.886719 9.761719 -201.027344 C 24.902344 -167.277344 51.941406 -149.929688 89.441406 -148.746094 C 94.554688 -148.585938 99.109375 -148.726562 103.378906 -148.875 C 106.144531 -137.414062 110.890625 -125.601562 115.910156 -113.5 C 123.574219 -95.058594 131.507812 -76.039062 130.886719 -56.4375 C 129.765625 -20.925781 103.050781 5.527344 65.554688 4.34375 C 35.15625 3.386719 12.488281 -17.238281 13.386719 -45.644531 C 14.238281 -72.632812 35.445312 -95.851562 60.445312 -95.0625 C 78.058594 -94.507812 89.222656 -78.796875 86.996094 -62.375 C 86.597656 -58.691406 89.347656 -55.757812 93.039062 -55.640625 C 95.882812 -55.554688 97.941406 -57.761719 98.574219 -59.734375 C 99.210938 -61.988281 99.265625 -63.691406 99.300781 -64.828125 C 99.992188 -86.703125 84.402344 -106.25 60.820312 -106.992188 C 30.140625 -107.960938 2.546875 -80.679688 1.480469 -46.875 C 0.386719 -12.214844 26.539062 15.058594 64.324219 16.25 C 107.222656 17.605469 141.410156 -11.460938 142.820312 -56.0625 C 143.507812 -77.9375 135.054688 -98.394531 126.859375 -117.988281 C 122.09375 -129.230469 117.605469 -140.179688 115.097656 -150.78125 C 136.328125 -156.648438 148.980469 -170.183594 150.363281 -186.917969 Z M 138.433594 -187.296875 C 138.289062 -182.75 137.34375 -170.835938 113.484375 -162.773438 C 113.253906 -164.488281 113.320312 -166.476562 113.371094 -168.179688 C 113.777344 -180.964844 120.253906 -196.96875 131.902344 -196.601562 C 136.445312 -196.457031 138.621094 -193.261719 138.433594 -187.296875 Z M 138.433594 -187.296875" transform="translate(91.055 377.1)"/></g></g></g><g fill="#FFF"><g><g><path d="M 58.863281 -79.519531 C 57.976562 -79.644531 57.085938 -79.769531 56.246094 -79.617188 C 54.007812 -79.207031 52.027344 -77.402344 51.265625 -75.242188 C 43.386719 -44.042969 34.203125 -18.382812 14.070312 -14.707031 C 8.480469 -13.683594 4.359375 -17.265625 2.980469 -24.816406 C 1.5 -32.921875 2.785156 -46.449219 8.324219 -80.976562 C 12.800781 -108.664062 15.207031 -122.394531 15.914062 -128.015625 L 38.839844 -132.203125 C 42.195312 -132.816406 44.253906 -135.792969 43.640625 -139.144531 C 43.078125 -142.222656 40.050781 -144.558594 36.695312 -143.945312 L 17.960938 -140.523438 C 18.949219 -146.195312 24.742188 -182.5 24.207031 -180.671875 C 24.941406 -184.5625 21.378906 -188.246094 17.1875 -187.476562 C 14.671875 -187.019531 12.6875 -185.210938 12.308594 -182.542969 C 12.234375 -181.371094 5.734375 -139.445312 5.378906 -138.226562 L -16.148438 -134.292969 C -19.503906 -133.679688 -21.511719 -130.425781 -20.949219 -127.347656 C -20.335938 -123.992188 -17.359375 -121.9375 -14.003906 -122.550781 L 3.609375 -125.765625 L -3.347656 -83.179688 C -8.105469 -58.617188 -10.652344 -33.015625 -8.761719 -22.667969 C -6.3125 -9.25 2.796875 -0.511719 16.21875 -2.960938 C 41.941406 -7.660156 53.257812 -34.285156 63.089844 -72.199219 C 63.21875 -73.089844 63.34375 -73.980469 63.191406 -74.816406 C 62.78125 -77.054688 61.027344 -78.757812 58.863281 -79.519531 Z M 58.863281 -79.519531" transform="translate(271.947 375.061)"/></g></g></g><g fill="#FFF"><g><g><path d="M 96.28125 -107.332031 C 95.382812 -107.304688 94.484375 -107.277344 93.683594 -106.984375 C 91.550781 -106.203125 90.171875 -104.183594 89.886719 -101.65625 L 89.910156 -100.757812 C 88.34375 -77.785156 86.09375 -44.265625 69.550781 -38.203125 C 63.945312 -36.148438 60.371094 -38.472656 57.433594 -46.476562 C 53.132812 -58.21875 53.429688 -84.664062 53.160156 -115.140625 L 53.398438 -155.792969 C 53.558594 -159.484375 49.859375 -162.96875 45.585938 -161.40625 C 43.1875 -160.523438 41.539062 -158.410156 41.523438 -155.980469 C 41.457031 -152.023438 41.324219 -147.433594 41.386719 -142.308594 C 33.0625 -150.15625 23.125 -151.660156 11.917969 -147.550781 C -20.109375 -135.816406 -24.175781 -63.488281 -11.363281 -28.527344 C -5.496094 -12.515625 6.136719 -2.25 21.082031 -7.726562 C 32.558594 -11.933594 41.027344 -23.511719 46.226562 -42.371094 C 51.019531 -29.292969 60.847656 -22.300781 73.65625 -26.992188 C 97.675781 -35.796875 100.058594 -73.902344 101.984375 -100.035156 L 101.957031 -100.933594 C 101.929688 -101.832031 101.902344 -102.730469 101.609375 -103.53125 C 100.828125 -105.667969 98.808594 -107.046875 96.28125 -107.332031 Z M 16.707031 -18.835938 C 8.703125 -15.902344 3.464844 -22.761719 -0.839844 -34.503906 C -9.988281 -61.121094 -8.332031 -126.8125 16.023438 -136.34375 C 25.632812 -139.863281 35.210938 -135.203125 40.246094 -123.121094 L 40.097656 -103.695312 C 39.398438 -72.5625 38.324219 -26.757812 16.707031 -18.835938 Z M 16.707031 -18.835938" transform="translate(349.654 361.56)"/></g></g></g><g fill="#FFF"><g><g><path d="M 62.734375 -120.085938 C 61.863281 -119.867188 60.992188 -119.648438 60.269531 -119.191406 C 58.351562 -117.96875 57.4375 -115.703125 57.699219 -113.175781 C 63.707031 -73.542969 63.140625 -54.316406 51.386719 -46.839844 C 46.113281 -43.484375 41.601562 -46.339844 37.785156 -52.335938 C 35.433594 -56.5625 33.320312 -60.945312 31.554688 -66.898438 C 29.179688 -73.808594 18.875 -115.425781 16.957031 -125.324219 C 16.085938 -128.8125 12.902344 -131.164062 9.65625 -130.445312 C 6.40625 -129.726562 2.679688 -128.703125 -1.289062 -127.527344 C -9.769531 -125.5 -19.601562 -122.953125 -28.453125 -122.039062 C -31.523438 -133.222656 -31.9375 -135.988281 -34.378906 -139.828125 C -40.480469 -149.417969 -49.722656 -152.296875 -58.359375 -146.804688 C -66.03125 -141.925781 -69.324219 -131.746094 -63.070312 -121.910156 C -57.425781 -113.039062 -48.421875 -110.007812 -38.023438 -109.546875 L -36.324219 -100.523438 L -28.964844 -46.589844 C -28.746094 -45.71875 -28.527344 -44.847656 -28.070312 -44.125 C -26.851562 -42.207031 -24.582031 -41.292969 -22.292969 -41.402344 C -21.421875 -41.617188 -20.550781 -41.835938 -19.589844 -42.445312 C -17.914062 -43.515625 -16.84375 -45.542969 -17.105469 -48.070312 C -24.617188 -102.242188 -25.074219 -106.667969 -25.945312 -110.15625 C -18.992188 -110.875 -15.746094 -111.59375 6.296875 -117.191406 C 7.492188 -110.542969 17.230469 -71.9375 20.195312 -63.042969 C 22.332031 -55.976562 24.664062 -50.722656 27.714844 -45.925781 C 35.1875 -34.175781 46.285156 -29.445312 57.554688 -36.613281 L 57.796875 -36.765625 C 74.101562 -47.140625 76.789062 -69.398438 69.644531 -115.046875 C 69.425781 -115.917969 69.207031 -116.792969 68.75 -117.511719 C 67.53125 -119.429688 65.261719 -120.34375 62.734375 -120.085938 Z M -44.605469 -133.660156 C -43.078125 -131.261719 -41.769531 -126.027344 -40.835938 -121.910156 C -46.261719 -122.5 -51.167969 -125.441406 -53.609375 -129.277344 C -55.285156 -131.917969 -55.066406 -134.75 -51.949219 -136.734375 C -50.03125 -137.953125 -47.199219 -137.734375 -44.605469 -133.660156 Z M -44.605469 -133.660156" transform="translate(479.286 310.638)"/></g></g></g><g fill="#FFF"><g><g><path d="M 269.148438 -179.503906 C 266.886719 -179.714844 264.488281 -178.511719 263.429688 -176.328125 C 262.394531 -174.425781 254.472656 -156.894531 244.769531 -135.539062 C 235.503906 -115.851562 225.074219 -92.847656 217.179688 -75.601562 L 143.882812 -82.457031 L 148.3125 -93.175781 C 156.703125 -112.660156 166.980469 -137.105469 178.941406 -155.113281 C 184.007812 -163.488281 193.1875 -170.050781 202.71875 -174.300781 C 205.089844 -175.21875 206.40625 -177.09375 206.617188 -179.359375 C 206.832031 -181.621094 205.476562 -185.460938 201.230469 -185.855469 C 200.382812 -185.9375 199.222656 -185.757812 198.320312 -185.273438 C 191.777344 -182.460938 186.03125 -179 178.941406 -173.382812 C 165.3125 -177.226562 153.230469 -182.355469 141.972656 -187.117188 C 123.285156 -194.863281 106.242188 -201.878906 85.300781 -203.839844 C 60.394531 -206.167969 34.222656 -185.78125 31.65625 -158.328125 C 29.351562 -133.710938 44.769531 -115.425781 72.21875 -112.855469 C 82.40625 -111.902344 93.683594 -113.417969 104.011719 -117.019531 C 106.382812 -117.9375 107.699219 -119.8125 107.910156 -122.078125 C 108.121094 -124.34375 106.769531 -128.179688 102.804688 -128.550781 C 101.675781 -128.65625 100.800781 -128.453125 99.921875 -128.25 C 91.089844 -125.363281 81.820312 -123.949219 73.613281 -124.714844 C 54.371094 -126.515625 41.660156 -137.125 43.621094 -158.066406 C 45.394531 -177.027344 65.511719 -193.703125 84.1875 -191.953125 C 103.148438 -190.179688 119.625 -183.214844 137.207031 -175.859375 C 147.386719 -171.769531 158.105469 -167.339844 170.007812 -163.371094 L 169 -161.753906 C 156.085938 -142.691406 145.753906 -117.679688 137.335938 -97.914062 L 131.148438 -83.648438 L 115.300781 -85.132812 C 111.90625 -85.449219 109.09375 -82.859375 108.777344 -79.460938 C 108.484375 -76.347656 110.765625 -73.28125 114.164062 -72.960938 L 126.050781 -71.851562 C 124.988281 -69.667969 123.875 -66.914062 122.789062 -64.449219 C 106.011719 -25.480469 89.648438 12.097656 48.898438 8.285156 C 24.558594 6.007812 13.078125 -11.621094 15.167969 -33.980469 C 17.738281 -61.429688 43.722656 -79.839844 68.910156 -77.480469 C 72.304688 -77.164062 75.117188 -79.753906 75.4375 -83.152344 C 75.726562 -86.265625 73.445312 -89.332031 70.050781 -89.652344 C 38.582031 -92.023438 6.511719 -69.617188 3.308594 -35.375 C 0.609375 -6.507812 15.804688 17.179688 47.5 20.144531 C 97.308594 24.804688 115.457031 -16.605469 134.046875 -59.683594 C 135.523438 -63.257812 137 -66.828125 138.785156 -70.660156 L 211.796875 -63.828125 L 205.742188 -50.976562 C 183.878906 -6.492188 170.992188 21.421875 169.402344 38.402344 C 167.46875 59.058594 175.042969 75.753906 196.78125 78.359375 C 200.175781 78.675781 202.988281 76.085938 203.5625 73 C 203.882812 69.601562 201.316406 66.507812 198.203125 66.214844 C 183.769531 64.867188 179.398438 53.609375 181.289062 39.511719 C 183.230469 24.851562 193.609375 2.410156 216.691406 -45.957031 C 219.175781 -51.148438 239.648438 -96.050781 255.433594 -130.542969 L 274.070312 -171.050781 C 275.828125 -174.597656 273.960938 -179.054688 269.148438 -179.503906 Z M 269.148438 -179.503906" transform="translate(48.383 605.25)"/></g></g></g><g fill="#FFF"><g><g><path d="M 107.054688 -96.589844 C 106.160156 -96.660156 105.261719 -96.726562 104.433594 -96.519531 C 102.230469 -95.964844 100.644531 -94.105469 100.09375 -91.621094 L 100.027344 -90.726562 C 96.046875 -68.042969 90.28125 -34.949219 73.1875 -30.664062 C 67.398438 -29.210938 64.085938 -31.894531 62.011719 -40.167969 C 58.96875 -52.296875 62.050781 -78.566406 64.996094 -108.898438 L 69.515625 -149.296875 C 70.0625 -152.953125 66.75 -156.808594 62.339844 -155.703125 C 59.859375 -155.082031 58 -153.148438 57.726562 -150.738281 C 57.246094 -146.808594 56.628906 -142.257812 56.148438 -137.15625 C 48.699219 -145.835938 38.976562 -148.378906 27.398438 -145.476562 C -5.6875 -137.179688 -17.351562 -65.683594 -8.292969 -29.566406 C -4.144531 -13.027344 6.339844 -1.589844 21.78125 -5.460938 C 33.632812 -8.433594 43.277344 -19.058594 50.433594 -37.261719 C 53.820312 -23.753906 62.859375 -15.765625 76.089844 -19.082031 C 100.902344 -25.304688 107.285156 -62.949219 111.953125 -88.734375 L 112.023438 -89.632812 C 112.089844 -90.527344 112.160156 -91.425781 111.953125 -92.25 C 111.398438 -94.457031 109.535156 -96.039062 107.054688 -96.589844 Z M 18.601562 -16.972656 C 10.328125 -14.898438 5.84375 -22.269531 2.800781 -34.402344 C -3.492188 -61.832031 5.074219 -126.984375 30.300781 -133.894531 C 40.226562 -136.386719 49.261719 -130.738281 52.992188 -118.195312 L 50.800781 -98.890625 C 46.824219 -68.007812 40.929688 -22.574219 18.601562 -16.972656 Z M 18.601562 -16.972656" transform="translate(317.1 613.919)"/></g></g></g><g fill="#FFF"><g><g><path d="M 63.5625 -105.460938 C 60.253906 -105.136719 57.789062 -102.382812 57.738281 -99.203125 C 59.042969 -63.585938 51.746094 -38.027344 26.882812 -26.117188 C 14.578125 -20.222656 1.710938 -26.03125 -5.167969 -40.386719 C -19.902344 -71.148438 -13.96875 -129.144531 6.027344 -138.722656 C 13.714844 -142.410156 19.136719 -139.648438 23.433594 -130.675781 C 28.347656 -120.421875 24.28125 -113.117188 26 -109.527344 C 27.597656 -106.195312 30.507812 -105.382812 33.839844 -106.980469 C 39.738281 -109.804688 39.726562 -124.296875 34.199219 -135.832031 C 27.445312 -149.933594 15.480469 -156.488281 0.867188 -149.488281 C -25.277344 -136.964844 -35.214844 -75.472656 -16.054688 -35.484375 C -5.984375 -14.464844 13.074219 -6.261719 31.785156 -15.226562 C 61.519531 -29.472656 70.886719 -57.285156 69.820312 -99.636719 C 69.710938 -100.527344 69.71875 -101.164062 69.351562 -101.933594 C 68.371094 -103.984375 66.105469 -105.421875 63.5625 -105.460938 Z M 63.5625 -105.460938" transform="translate(449.615 577.027)"/></g></g></g><g fill="#FFF"><g><g><path d="M -5.96875 -0.839844 C -21.714844 -53.390625 -37.335938 -102.472656 -59.484375 -172.972656 C -60.574219 -176.777344 -65.410156 -178.472656 -69.039062 -175.738281 C -70.855469 -174.367188 -71.816406 -171.867188 -71.132812 -169.535156 C -69.015625 -162.945312 -58.886719 -131.078125 -17.273438 3.050781 C -16.300781 6.230469 -12.886719 7.929688 -9.707031 6.957031 C -6.695312 5.753906 -5.167969 2.113281 -5.96875 -0.839844 Z M 59.1875 -129.28125 C 58.335938 -128.992188 57.484375 -128.707031 56.804688 -128.195312 C 54.988281 -126.824219 54.253906 -124.492188 54.714844 -121.992188 C 60.792969 -95.972656 66.828125 -65.285156 53.433594 -55.195312 C 48.664062 -51.605469 42.917969 -54.039062 39.839844 -58.125 C 35.90625 -63.34375 25.234375 -82.707031 21.300781 -87.929688 C 13.722656 -97.519531 4.957031 -103.015625 -7.082031 -96.792969 L 4.835938 -159.863281 C 5.058594 -161.453125 4.886719 -163.101562 3.859375 -164.464844 C 2.492188 -166.28125 -1.320312 -168.035156 -4.726562 -165.46875 C -5.859375 -164.613281 -6.542969 -164.101562 -7.050781 -161.941406 C -16.378906 -111.496094 -23.414062 -77.375 -24.140625 -72.199219 C -24.980469 -66.230469 -20.082031 -62.089844 -15.089844 -65.851562 C -10.777344 -69.101562 -12.5 -78.476562 -5.917969 -83.4375 C 1.800781 -89.253906 7.09375 -86.476562 11.765625 -80.746094 C 15.074219 -76.832031 17.984375 -71.550781 20.722656 -66.496094 C 23.976562 -60.761719 27.054688 -55.253906 30.820312 -50.261719 C 37.316406 -41.632812 50.171875 -37.792969 60.617188 -45.660156 C 79.457031 -59.855469 73.875 -92.304688 66.472656 -124.804688 C 66.1875 -125.65625 65.902344 -126.507812 65.390625 -127.1875 C 64.019531 -129.003906 61.519531 -129.964844 59.1875 -129.28125 Z M 59.1875 -129.28125" transform="translate(551.045 527.122)"/></g></g></g><g fill="#FFF"><g><g><path d="M 22.714844 -103.984375 C 7.839844 -116.328125 -4.710938 -116.960938 -35.054688 -123.457031 C -36.890625 -136.621094 -41.777344 -150.148438 -50.417969 -157.535156 C -57.050781 -162.460938 -65.160156 -163.035156 -70.519531 -156.769531 C -78.089844 -147.914062 -74.496094 -132.871094 -63.261719 -123.269531 C -58.292969 -119.019531 -52.433594 -116.253906 -46.234375 -114.316406 C -45.855469 -109.507812 -45.328125 -105.316406 -44.519531 -100.140625 C -44.210938 -98.753906 -43.5 -97.394531 -42.632812 -96.65625 C -41.339844 -95.550781 -39.457031 -94.6875 -37.667969 -95.03125 C -36.066406 -95.15625 -34.742188 -96.265625 -33.816406 -97.347656 C -32.710938 -98.644531 -32.25 -100.492188 -32.589844 -102.28125 C -33.210938 -105.054688 -33.648438 -108.042969 -33.867188 -110.851562 C -3.984375 -105.121094 5.050781 -103.007812 14.742188 -95.09375 C 32.300781 -79.332031 33.039062 -57.015625 18.078125 -39.515625 C 7.363281 -26.984375 -11.34375 -23.910156 -24.523438 -35.175781 C -36.960938 -47.308594 -40.25 -63.582031 -30.089844 -75.460938 C -25.289062 -81.078125 -15.269531 -81.863281 -7.554688 -76.015625 C -4.964844 -73.796875 -1.355469 -74.082031 0.859375 -76.671875 C 3.074219 -79.265625 2.792969 -82.871094 0.203125 -85.089844 C -12.050781 -94.816406 -29.746094 -94.238281 -39.347656 -83.003906 C -54.125 -65.722656 -50.613281 -44.023438 -32.28125 -26.101562 C -14.78125 -11.140625 11.820312 -13.828125 27.152344 -31.757812 C 45.804688 -53.578125 45.675781 -83.605469 22.714844 -103.984375 Z M -47.882812 -127.695312 C -50.8125 -129.078125 -53.34375 -130.496094 -55.71875 -132.527344 C -58.746094 -135.113281 -62.078125 -139.085938 -62.457031 -143.894531 C -62.769531 -147.902344 -61.386719 -150.832031 -58.359375 -148.246094 C -53.609375 -144.183594 -49.679688 -135.214844 -47.882812 -127.695312 Z M -47.882812 -127.695312" transform="translate(658.97 442.201)"/></g></g></g><g fill="#C49DCE"><g><g><path d="M 53.828125 -29.46875 L 44.40625 -29.25 L 42.546875 -19.59375 L 49.96875 -19.765625 L 50.1875 -10.078125 L 40.6875 -9.859375 L 39.015625 -0.890625 L 28.953125 -0.671875 L 30.640625 -9.625 L 20.21875 -9.390625 L 18.53125 -0.421875 L 8.484375 -0.1875 L 10.171875 -9.15625 L 0.734375 -8.9375 L 0.515625 -18.625 L 12.015625 -18.890625 L 13.875 -28.546875 L 4.390625 -28.328125 L 4.15625 -37.984375 L 15.71875 -38.25 L 17.34375 -46.90625 L 27.390625 -47.140625 L 25.765625 -38.484375 L 36.1875 -38.71875 L 37.828125 -47.375 L 47.875 -47.609375 L 46.25 -38.953125 L 53.59375 -39.125 Z M 32.5 -19.359375 L 34.34375 -29.015625 L 23.9375 -28.78125 L 22.078125 -19.125 Z M 32.5 -19.359375" transform="translate(284.887 680.288)"/></g></g></g><g fill="#C49DCE"><g><g><path d="M -0.65625 -44.359375 L 18.359375 -46.671875 C 22.816406 -47.210938 26.5 -46.5625 29.40625 -44.71875 C 32.3125 -42.882812 33.96875 -40.304688 34.375 -36.984375 C 34.976562 -32.035156 32.488281 -28.332031 26.90625 -25.875 C 29.914062 -25.832031 32.414062 -24.894531 34.40625 -23.0625 C 36.40625 -21.238281 37.570312 -18.957031 37.90625 -16.21875 C 38.332031 -12.71875 37.390625 -9.78125 35.078125 -7.40625 C 32.773438 -5.039062 29.335938 -3.578125 24.765625 -3.015625 L 4.6875 -0.578125 Z M 10.984375 -37.5625 L 12.140625 -28.078125 L 19.125 -28.921875 C 20.664062 -29.109375 21.859375 -29.648438 22.703125 -30.546875 C 23.546875 -31.453125 23.867188 -32.6875 23.671875 -34.25 C 23.484375 -35.8125 22.867188 -36.941406 21.828125 -37.640625 C 20.796875 -38.335938 19.507812 -38.59375 17.96875 -38.40625 Z M 14.359375 -9.984375 L 22.40625 -10.96875 C 23.863281 -11.144531 25.015625 -11.726562 25.859375 -12.71875 C 26.703125 -13.707031 27.03125 -14.96875 26.84375 -16.5 C 26.65625 -18.039062 26.050781 -19.210938 25.03125 -20.015625 C 24.007812 -20.816406 22.769531 -21.128906 21.3125 -20.953125 L 13.140625 -19.953125 Z M 14.359375 -9.984375" transform="translate(345.037 678.425)"/></g></g></g><g fill="#C49DCE"><g><g><path d="M 0.765625 -18.34375 L -4.65625 -44.09375 L 5.84375 -46.296875 L 11.265625 -20.546875 C 11.816406 -17.960938 12.875 -16.109375 14.4375 -14.984375 C 16.007812 -13.859375 18.019531 -13.550781 20.46875 -14.0625 C 22.925781 -14.582031 24.664062 -15.679688 25.6875 -17.359375 C 26.71875 -19.035156 26.957031 -21.164062 26.40625 -23.75 L 20.984375 -49.5 L 31.5 -51.703125 L 36.921875 -25.953125 C 37.722656 -22.140625 37.519531 -18.660156 36.3125 -15.515625 C 35.113281 -12.367188 33.285156 -9.875 30.828125 -8.03125 C 28.378906 -6.195312 25.554688 -4.941406 22.359375 -4.265625 C 17.347656 -3.210938 12.796875 -3.878906 8.703125 -6.265625 C 4.609375 -8.648438 1.960938 -12.675781 0.765625 -18.34375 Z M 0.765625 -18.34375" transform="translate(388.66 673.113)"/></g></g></g><g fill="#C49DCE"><g><g><path d="M 4.546875 -1.265625 L -7.3125 -43.75 L 3.03125 -46.640625 L 14.890625 -4.15625 Z M 4.546875 -1.265625" transform="translate(434.655 662.957)"/></g></g></g><g fill="#C49DCE"><g><g><path d="M -9.453125 -43.328125 L 0.71875 -46.71875 L 12.078125 -12.625 L 24.78125 -16.859375 L 27.359375 -9.109375 L 4.484375 -1.484375 Z M -9.453125 -43.328125" transform="translate(454.975 657.388)"/></g></g></g><g fill="#C49DCE"><g><g><path d="M 11.09375 -13.5 L 15.515625 -15.34375 C 19.296875 -16.925781 21.785156 -19.332031 22.984375 -22.5625 C 24.179688 -25.789062 23.960938 -29.351562 22.328125 -33.25 C 20.691406 -37.15625 18.304688 -39.816406 15.171875 -41.234375 C 12.035156 -42.648438 8.578125 -42.566406 4.796875 -40.984375 L 0.375 -39.140625 Z M 1.65625 -48.5 C 8.144531 -51.21875 14.265625 -51.566406 20.015625 -49.546875 C 25.765625 -47.523438 29.894531 -43.507812 32.40625 -37.5 C 34.925781 -31.488281 34.890625 -25.71875 32.296875 -20.1875 C 29.703125 -14.65625 25.160156 -10.53125 18.671875 -7.8125 L 4.359375 -1.828125 L -12.65625 -42.515625 Z M 1.65625 -48.5" transform="translate(484.926 647.685)"/></g></g></g><g fill="#C49DCE"><g><g><path d="M 4.21875 -2.09375 L -15.40625 -41.59375 L -5.78125 -46.375 L 13.84375 -6.875 Z M 4.21875 -2.09375" transform="translate(528.67 628.883)"/></g></g></g><g fill="#C49DCE"><g><g><path d="M 6.5625 -55.046875 L 15.828125 -60.46875 L 38.140625 -22.28125 L 28.875 -16.859375 L -0.703125 -31.84375 L 13.34375 -7.796875 L 4.078125 -2.375 L -18.234375 -40.5625 L -8.96875 -45.984375 L 20.59375 -31.03125 Z M 6.5625 -55.046875" transform="translate(548.052 619.745)"/></g></g></g><g fill="#C49DCE"><g><g><path d="M 3.5625 -9.953125 C -2.46875 -10.847656 -7.390625 -13.945312 -11.203125 -19.25 C -15.023438 -24.5625 -16.398438 -30.21875 -15.328125 -36.21875 C -14.265625 -42.226562 -11.160156 -47.082031 -6.015625 -50.78125 C -2.046875 -53.644531 2.242188 -55.132812 6.859375 -55.25 C 11.472656 -55.363281 15.734375 -53.992188 19.640625 -51.140625 L 9.25 -43.65625 C 6.007812 -45.289062 2.894531 -45.03125 -0.09375 -42.875 C -3.09375 -40.726562 -4.773438 -38.101562 -5.140625 -35 C -5.515625 -31.894531 -4.578125 -28.773438 -2.328125 -25.640625 C -0.078125 -22.515625 2.578125 -20.632812 5.640625 -20 C 8.703125 -19.363281 11.679688 -20.082031 14.578125 -22.15625 C 16.648438 -23.644531 17.960938 -25.378906 18.515625 -27.359375 C 19.078125 -29.347656 18.957031 -31.367188 18.15625 -33.421875 L 8.046875 -26.15625 L 3.28125 -32.796875 L 22.765625 -46.8125 L 27.53125 -40.171875 C 29.25 -36.441406 29.660156 -32.109375 28.765625 -27.171875 C 28.347656 -24.816406 27.410156 -22.472656 25.953125 -20.140625 C 24.503906 -17.816406 22.628906 -15.820312 20.328125 -14.15625 C 15.179688 -10.457031 9.59375 -9.054688 3.5625 -9.953125 Z M 3.5625 -9.953125" transform="translate(591.72 594.113)"/></g></g></g><g fill="#C49DCE"><g><g><path d="M -25.234375 -36.484375 L -10.734375 -49 C -7.335938 -51.925781 -3.921875 -53.429688 -0.484375 -53.515625 C 2.953125 -53.609375 5.769531 -52.382812 7.96875 -49.84375 C 11.21875 -46.070312 11.207031 -41.613281 7.9375 -36.46875 C 10.46875 -38.101562 13.070312 -38.71875 15.75 -38.3125 C 18.425781 -37.90625 20.664062 -36.65625 22.46875 -34.5625 C 24.769531 -31.894531 25.617188 -28.9375 25.015625 -25.6875 C 24.421875 -22.4375 22.378906 -19.304688 18.890625 -16.296875 L 3.578125 -3.078125 Z M -11.78125 -37.3125 L -5.53125 -30.078125 L -0.203125 -34.671875 C 0.972656 -35.691406 1.65625 -36.8125 1.84375 -38.03125 C 2.039062 -39.25 1.625 -40.453125 0.59375 -41.640625 C -0.425781 -42.835938 -1.5625 -43.4375 -2.8125 -43.4375 C -4.0625 -43.4375 -5.273438 -42.925781 -6.453125 -41.90625 Z M 6.359375 -16.28125 L 12.5 -21.578125 C 13.613281 -22.535156 14.25 -23.660156 14.40625 -24.953125 C 14.5625 -26.253906 14.132812 -27.488281 13.125 -28.65625 C 12.113281 -29.832031 10.957031 -30.46875 9.65625 -30.5625 C 8.351562 -30.65625 7.144531 -30.222656 6.03125 -29.265625 L -0.203125 -23.890625 Z M 6.359375 -16.28125" transform="translate(631.9 564.979)"/></g></g></g><g fill="#C49DCE"><g><g><path d="M -1.40625 -23.046875 L 10.828125 -11.015625 L 3.3125 -3.359375 L -28.140625 -34.28125 L -15.953125 -46.703125 C -12.367188 -50.335938 -8.640625 -52.25 -4.765625 -52.4375 C -0.898438 -52.625 2.363281 -51.410156 5.03125 -48.796875 C 6.851562 -47.003906 8.085938 -44.703125 8.734375 -41.890625 C 9.390625 -39.085938 8.84375 -36.078125 7.09375 -32.859375 L 27.484375 -27.96875 L 18.671875 -19 L -0.515625 -23.953125 Z M -14.8125 -36.21875 L -7.234375 -28.765625 L -2.5625 -33.53125 C -1.40625 -34.695312 -0.84375 -35.953125 -0.875 -37.296875 C -0.90625 -38.648438 -1.484375 -39.878906 -2.609375 -40.984375 C -3.734375 -42.085938 -4.988281 -42.644531 -6.375 -42.65625 C -7.757812 -42.675781 -9.015625 -42.117188 -10.140625 -40.984375 Z M -14.8125 -36.21875" transform="translate(665.072 536.275)"/></g></g></g><g fill="#C49DCE"><g><g><path d="M 3.09375 -3.5625 L -30.1875 -32.515625 L -23.140625 -40.609375 L 10.140625 -11.65625 Z M 3.09375 -3.5625" transform="translate(695.004 505.298)"/></g></g></g><g fill="#C49DCE"><g><g><path d="M 2.859375 -17.25 L 5.765625 -21.046875 C 8.242188 -24.316406 9.195312 -27.644531 8.625 -31.03125 C 8.050781 -34.425781 6.082031 -37.398438 2.71875 -39.953125 C -0.644531 -42.515625 -4.039062 -43.625 -7.46875 -43.28125 C -10.90625 -42.945312 -13.863281 -41.144531 -16.34375 -37.875 L -19.25 -34.078125 Z M -22.828125 -42.8125 C -18.566406 -48.414062 -13.4375 -51.78125 -7.4375 -52.90625 C -1.445312 -54.03125 4.132812 -52.617188 9.3125 -48.671875 C 14.5 -44.722656 17.351562 -39.707031 17.875 -33.625 C 18.394531 -27.539062 16.523438 -21.695312 12.265625 -16.09375 L 2.859375 -3.75 L -32.234375 -30.46875 Z M -22.828125 -42.8125" transform="translate(709.326 489.425)"/></g></g></g><g fill="#C49DCE"><g><g><path d="M -0.46875 -10.5625 C -6.394531 -9.101562 -12.128906 -10.101562 -17.671875 -13.5625 C -23.210938 -17.03125 -26.628906 -21.75 -27.921875 -27.71875 C -29.210938 -33.6875 -28.179688 -39.351562 -24.828125 -44.71875 C -22.234375 -48.875 -18.820312 -51.875 -14.59375 -53.71875 C -10.375 -55.570312 -5.910156 -55.921875 -1.203125 -54.765625 L -8 -43.90625 C -11.613281 -44.1875 -14.394531 -42.765625 -16.34375 -39.640625 C -18.300781 -36.515625 -18.863281 -33.445312 -18.03125 -30.4375 C -17.195312 -27.425781 -15.144531 -24.894531 -11.875 -22.84375 C -8.601562 -20.800781 -5.429688 -20.066406 -2.359375 -20.640625 C 0.710938 -21.210938 3.191406 -23.007812 5.078125 -26.03125 C 6.429688 -28.195312 6.992188 -30.300781 6.765625 -32.34375 C 6.535156 -34.394531 5.660156 -36.21875 4.140625 -37.8125 L -2.453125 -27.265625 L -9.390625 -31.59375 L 3.328125 -51.9375 L 10.265625 -47.609375 C 13.253906 -44.804688 15.265625 -40.953125 16.296875 -36.046875 C 16.816406 -33.710938 16.847656 -31.191406 16.390625 -28.484375 C 15.929688 -25.773438 14.945312 -23.210938 13.4375 -20.796875 C 10.082031 -15.429688 5.445312 -12.019531 -0.46875 -10.5625 Z M -0.46875 -10.5625" transform="translate(738.46 451.1)"/></g></g></g><g fill="#C49DCE"><g><g><path d="M -24.90625 -48.21875 L -17.65625 -44.46875 L -24.96875 -30.28125 L -16.515625 -25.921875 L -10.0625 -38.421875 L -2.8125 -34.671875 L -9.265625 -22.171875 L -0.171875 -17.484375 L 7.140625 -31.671875 L 14.40625 -27.921875 L 2.171875 -4.1875 L -37.140625 -24.484375 Z M -24.90625 -48.21875" transform="translate(764.435 408.954)"/></g></g></g><g fill="#C49DCE"><g><g><path d="M -25.671875 -32.28125 C -26.203125 -31.039062 -26.304688 -29.882812 -25.984375 -28.8125 C -25.671875 -27.75 -24.898438 -26.953125 -23.671875 -26.421875 C -22.441406 -25.898438 -21.289062 -25.847656 -20.21875 -26.265625 C -19.15625 -26.679688 -18.171875 -27.390625 -17.265625 -28.390625 C -16.359375 -29.390625 -15.414062 -30.535156 -14.4375 -31.828125 C -13.457031 -33.117188 -12.40625 -34.367188 -11.28125 -35.578125 C -10.15625 -36.785156 -8.953125 -37.8125 -7.671875 -38.65625 C -6.398438 -39.5 -4.90625 -39.988281 -3.1875 -40.125 C -1.476562 -40.269531 0.359375 -39.925781 2.328125 -39.09375 C 5.753906 -37.632812 8.097656 -34.984375 9.359375 -31.140625 C 10.628906 -27.304688 10.296875 -23.101562 8.359375 -18.53125 C 6.421875 -13.96875 3.753906 -10.753906 0.359375 -8.890625 C -3.023438 -7.023438 -6.742188 -6.953125 -10.796875 -8.671875 L -6.328125 -19.203125 C -2.972656 -18.085938 -0.644531 -19.054688 0.65625 -22.109375 C 1.257812 -23.535156 1.351562 -24.816406 0.9375 -25.953125 C 0.53125 -27.085938 -0.242188 -27.898438 -1.390625 -28.390625 C -2.546875 -28.878906 -3.644531 -28.910156 -4.6875 -28.484375 C -5.738281 -28.066406 -6.722656 -27.359375 -7.640625 -26.359375 C -8.566406 -25.359375 -9.519531 -24.210938 -10.5 -22.921875 C -11.488281 -21.628906 -12.550781 -20.382812 -13.6875 -19.1875 C -14.832031 -17.988281 -16.03125 -16.960938 -17.28125 -16.109375 C -18.539062 -15.253906 -20.03125 -14.757812 -21.75 -14.625 C -23.46875 -14.488281 -25.289062 -14.832031 -27.21875 -15.65625 C -31 -17.257812 -33.425781 -19.953125 -34.5 -23.734375 C -35.582031 -27.523438 -35.191406 -31.609375 -33.328125 -35.984375 C -31.472656 -40.359375 -28.976562 -43.472656 -25.84375 -45.328125 C -22.707031 -47.179688 -18.976562 -47.257812 -14.65625 -45.5625 L -19.234375 -34.796875 C -20.753906 -35.253906 -22.078125 -35.257812 -23.203125 -34.8125 C -24.328125 -34.363281 -25.148438 -33.519531 -25.671875 -32.28125 Z M -25.671875 -32.28125" transform="translate(781.587 375.81)"/></g></g></g></svg>