<svg width="1800" height="1604" viewBox="0 0 1800 1604" fill="none" xmlns="http://www.w3.org/2000/svg">
<path opacity="0.8" d="M1761.27 977.905L1766.53 975.49L1761.27 973.098L1760.43 967.716L1756.31 971.582L1750.51 970.675L1753.27 975.49L1750.51 980.297L1756.31 979.389L1760.43 983.256L1761.27 977.905Z" fill="white"/>
<path opacity="0.8" d="M463.989 1040.95L458.96 1036.17L457.931 1042.7L451.486 1045.66L457.931 1048.61L458.96 1055.14L463.989 1050.43L471.085 1051.56L467.726 1045.66L471.085 1039.82L463.989 1040.95Z" fill="#FEE2BB"/>
<path opacity="0.8" d="M1511.96 1289.54L1508.76 1292.57L1504.19 1291.87L1506.33 1295.59L1504.19 1299.39L1508.76 1298.68L1511.96 1301.7L1512.65 1297.49L1516.77 1295.59L1512.65 1293.74L1511.96 1289.54Z" fill="white"/>
<path opacity="0.8" d="M690.677 959.196L683.969 947.457L690.677 935.719L676.46 937.973L666.436 928.439L664.343 941.588L651.418 947.457L664.343 953.326L666.436 966.467L676.46 956.942L690.677 959.196Z" fill="#FBC78E"/>
<path opacity="0.8" d="M481.303 781.185L484.653 775.315L477.566 776.434L472.536 771.692L471.507 778.226L465.062 781.185L471.507 784.135L472.536 790.669L477.566 785.959L484.653 787.054L481.303 781.185Z" fill="white"/>
<path opacity="0.8" d="M1362.92 1239.01L1359.72 1242.03L1355.26 1241.33L1357.35 1244.99L1355.26 1248.71L1359.72 1248.01L1362.92 1251L1363.52 1246.89L1367.6 1244.99L1363.52 1243.16L1362.92 1239.01Z" fill="#FEE2BB"/>
<path opacity="0.8" d="M906.216 833.099L903.394 835.774L899.384 835.142L901.257 838.441L899.384 841.748L903.394 841.116L906.216 843.783L906.823 840.095L910.446 838.441L906.823 836.787L906.216 833.099Z" fill="white"/>
<path opacity="0.8" d="M1189.79 1219.68L1185.27 1223.9L1178.95 1222.92L1181.92 1228.11L1178.95 1233.35L1185.27 1232.34L1189.79 1236.58L1190.66 1230.72L1196.42 1228.11L1190.66 1225.51L1189.79 1219.68Z" fill="white"/>
<path opacity="0.8" d="M1752.88 828.973L1748.48 824.846L1747.67 830.545L1741.97 833.099L1747.67 835.652L1748.48 841.351L1752.88 837.225L1759.07 838.198L1756.13 833.099L1759.07 827.992L1752.88 828.973Z" fill="#FFEBC9"/>
<path opacity="0.8" d="M762.462 1378.38L760.642 1376.66L760.255 1379.04L757.925 1380.1L760.255 1381.16L760.642 1383.58L762.462 1381.85L765.065 1382.28L763.843 1380.1L765.065 1377.99L762.462 1378.38Z" fill="white"/>
<path opacity="0.8" d="M1218.22 863.336L1208.77 854.411L1206.86 866.749L1194.74 872.261L1206.86 877.782L1208.77 890.112L1218.22 881.187L1231.56 883.294L1225.24 872.261L1231.56 861.228L1218.22 863.336Z" fill="#FBC78E"/>
<path opacity="0.8" d="M1729.24 1371.17L1727.41 1372.93L1724.83 1372.51L1726.04 1374.61L1724.83 1376.79L1727.41 1376.37L1729.24 1378.12L1729.63 1375.74L1732 1374.61L1729.63 1373.56L1729.24 1371.17Z" fill="white"/>
<path opacity="0.8" d="M126.318 405.91L122.774 402.537L122.053 407.215L117.481 409.282L122.053 411.357L122.774 416.035L126.318 412.654L131.347 413.433L128.991 409.282L131.347 405.14L126.318 405.91Z" fill="#FFEBC9"/>
<path opacity="0.8" d="M448.426 434.347L447.397 427.805L442.368 432.548L435.272 431.429L438.631 437.298L435.272 443.167L442.368 442.04L447.397 446.783L448.426 440.216L454.897 437.298L448.426 434.347Z" fill="white"/>
<path opacity="0.8" d="M859.403 1273.52L862.534 1270.5L867.027 1271.21L864.89 1267.51L867.027 1263.82L862.534 1264.53L859.403 1261.5L858.718 1265.65L854.682 1267.51L858.718 1269.38L859.403 1273.52Z" fill="white"/>
<path opacity="0.8" d="M1149.36 130.766L1151.19 132.525L1151.58 130.134L1153.94 129.048L1151.58 127.994L1151.19 125.602L1149.36 127.321L1146.77 126.899L1147.99 129.048L1146.77 131.188L1149.36 130.766Z" fill="white"/>
<path opacity="0.8" d="M942.944 647.014L938.478 642.798L937.528 648.627L931.813 651.229L937.528 653.831L938.478 659.7L942.944 655.444L949.275 656.466L946.294 651.229L949.275 646.033L942.944 647.014Z" fill="white"/>
<path opacity="0.8" d="M160.847 909.016L151.887 900.577L150.023 912.243L138.584 917.479L150.023 922.684L151.887 934.349L160.847 925.918L173.421 927.921L167.477 917.479L173.421 907.006L160.847 909.016Z" fill="white"/>
<path opacity="0.8" d="M1627.4 1303.4L1624.04 1300.17L1623.35 1304.6L1618.97 1306.56L1623.35 1308.6L1624.04 1313.03L1627.4 1309.8L1632.2 1310.57L1629.98 1306.56L1632.2 1302.63L1627.4 1303.4Z" fill="white"/>
<path opacity="0.8" d="M1016.34 1348.38L1020.22 1344.69L1025.72 1345.58L1023.13 1341L1025.72 1336.51L1020.22 1337.35L1016.34 1333.69L1015.58 1338.76L1010.55 1341L1015.58 1343.29L1016.34 1348.38Z" fill="#FFEBC9"/>
<path opacity="0.8" d="M1452.28 1359.01L1449.9 1361.26L1446.47 1360.73L1448.08 1363.55L1446.47 1366.32L1449.9 1365.83L1452.28 1368.08L1452.77 1364.91L1455.86 1363.55L1452.77 1362.14L1452.28 1359.01Z" fill="#FFEBC9"/>
<path opacity="0.8" d="M1763.47 1239.86L1760.73 1242.46L1756.84 1241.9L1758.67 1245.06L1756.84 1248.3L1760.73 1247.67L1763.47 1250.27L1764.01 1246.69L1767.55 1245.06L1764.01 1243.48L1763.47 1239.86Z" fill="white"/>
<path opacity="0.8" d="M1263.87 1357.53L1260.97 1354.74L1260.37 1358.61L1256.55 1360.3L1260.37 1362.06L1260.97 1365.88L1263.87 1363.11L1268.06 1363.74L1266.08 1360.3L1268.06 1356.85L1263.87 1357.53Z" fill="white"/>
<path opacity="0.8" d="M1535.83 1376.01L1532.94 1373.2L1532.33 1377.06L1528.51 1378.75L1532.33 1380.51L1532.94 1384.37L1535.83 1381.56L1539.99 1382.19L1538.04 1378.75L1539.99 1375.3L1535.83 1376.01Z" fill="white"/>
<path opacity="0.8" d="M655.04 1174.55L648.332 1168.22L646.916 1177.01L638.264 1180.94L646.916 1184.88L648.332 1193.7L655.04 1187.34L664.563 1188.81L660.07 1180.94L664.563 1173.07L655.04 1174.55Z" fill="white"/>
<path opacity="0.8" d="M883.381 1065.93L879.495 1062.27L878.651 1067.34L873.7 1069.61L878.651 1071.9L879.495 1076.96L883.381 1073.31L888.833 1074.15L886.274 1069.61L888.833 1065.08L883.381 1065.93Z" fill="#FEE2BB"/>
<path opacity="0.8" d="M1635.2 1180.96L1632.8 1183.21L1629.41 1182.68L1631.02 1185.46L1629.41 1188.27L1632.8 1187.78L1635.2 1190.03L1635.71 1186.86L1638.79 1185.46L1635.71 1184.05L1635.2 1180.96Z" fill="white"/>
<path opacity="0.8" d="M1018.54 1573.12L1021.67 1576.14L1022.35 1572L1026.39 1570.17L1022.35 1568.27L1021.67 1564.16L1018.54 1567.15L1014.04 1566.45L1016.17 1570.17L1014.04 1573.82L1018.54 1573.12Z" fill="white"/>
<path opacity="0.8" d="M1012.25 1158.03L1016.14 1154.34L1021.62 1155.22L1019.03 1150.65L1021.62 1146.16L1016.14 1146.99L1012.25 1143.34L1011.48 1148.4L1006.45 1150.65L1011.48 1152.93L1012.25 1158.03Z" fill="white"/>
<path opacity="0.8" d="M407.654 1496.84L401.402 1490.91L400.065 1499.13L391.985 1502.78L400.065 1506.47L401.402 1514.69L407.654 1508.75L416.578 1510.16L412.384 1502.78L416.578 1495.43L407.654 1496.84Z" fill="white"/>
<path opacity="0.8" d="M505.237 1332.23L517.969 1334.2L511.946 1323.72L517.969 1313.17L505.237 1315.21L496.286 1306.71L494.413 1318.44L482.903 1323.72L494.413 1328.96L496.286 1340.69L505.237 1332.23Z" fill="#FBC78E"/>
<path opacity="0.8" d="M245.303 1579.38L241.636 1582.89L236.457 1582.05L238.893 1586.34L236.457 1590.62L241.636 1589.78L245.303 1593.3L246.059 1588.48L250.789 1586.34L246.059 1584.19L245.303 1579.38Z" fill="white"/>
<path opacity="0.8" d="M6.63859 1306.96L3.89523 1309.56L0 1308.93L1.8377 1312.15L0 1315.39L3.89523 1314.76L6.63859 1317.36L7.17497 1313.77L10.7537 1312.15L7.17497 1310.54L6.63859 1306.96Z" fill="white"/>
<path opacity="0.8" d="M1093.98 1377.95L1087.69 1371.97L1086.36 1380.26L1078.27 1383.92L1086.36 1387.64L1087.69 1395.94L1093.98 1389.93L1102.97 1391.33L1098.74 1383.92L1102.97 1376.54L1093.98 1377.95Z" fill="#FEE2BB"/>
<path opacity="0.8" d="M862.903 1366.31L859.737 1363.32L859.096 1367.47L855.051 1369.3L859.096 1371.13L859.737 1375.27L862.903 1372.29L867.361 1373.03L865.268 1369.3L867.361 1365.58L862.903 1366.31Z" fill="white"/>
<path opacity="0.8" d="M1430.69 1525.1L1427.76 1522.32L1427.15 1526.19L1423.38 1527.88L1427.15 1529.6L1427.76 1533.43L1430.69 1530.69L1434.89 1531.32L1432.91 1527.88L1434.89 1524.43L1430.69 1525.1Z" fill="white"/>
<path opacity="0.8" d="M691.223 1469.78L684.47 1463.42L683.063 1472.21L674.446 1476.14L683.063 1480.08L684.47 1488.9L691.223 1482.54L700.745 1484.01L696.252 1476.14L700.745 1468.27L691.223 1469.78Z" fill="#FEE2BB"/>
<path opacity="0.8" d="M21.7974 1537.38L31.8652 1546.87L33.9227 1533.76L46.8042 1527.89L33.9227 1522.02L31.8652 1508.88L21.7974 1518.37L7.62329 1516.12L14.2883 1527.89L7.62329 1539.63L21.7974 1537.38Z" fill="white"/>
<path opacity="0.8" d="M1207.78 742.954L1209.95 744.957L1210.37 742.144L1213.15 740.92L1210.37 739.655L1209.95 736.842L1207.78 738.877L1204.77 738.39L1206.18 740.92L1204.77 743.416L1207.78 742.954Z" fill="white"/>
<path opacity="0.8" d="M1016.04 167.165L1011.7 171.202L1005.67 170.261L1008.49 175.279L1005.67 180.305L1011.7 179.357L1016.04 183.402L1016.88 177.776L1022.41 175.279L1016.88 172.75L1016.04 167.165Z" fill="#FFEBC9"/>
<path opacity="0.8" d="M1677.02 54.8892L1679.53 52.4978L1683.04 53.0571L1681.37 50.1063L1683.04 47.1961L1679.53 47.7555L1677.02 45.364L1676.49 48.6309L1673.24 50.1063L1676.49 51.5817L1677.02 54.8892Z" fill="white"/>
<path opacity="0.8" d="M1316.5 502.766L1320.88 500.756L1316.5 498.794L1315.81 494.368L1312.45 497.562L1307.65 496.824L1309.9 500.756L1307.65 504.736L1312.45 503.998L1315.81 507.192L1316.5 502.766Z" fill="white"/>
<path opacity="0.8" d="M113.586 522.886L116.945 517.017L109.849 518.144L104.819 513.402L103.791 519.968L97.3455 522.886L103.791 525.837L104.819 532.412L109.849 527.669L116.945 528.756L113.586 522.886Z" fill="white"/>
<path opacity="0.8" d="M726.113 750.672L721.919 746.667L721.013 752.22L715.552 754.676L721.013 757.173L721.919 762.726L726.113 758.721L732.136 759.67L729.313 754.676L732.136 749.723L726.113 750.672Z" fill="white"/>
<path opacity="0.8" d="M812.968 522.173L810.032 519.393L809.416 523.26L805.609 524.978L809.416 526.705L810.032 530.531L812.968 527.759L817.119 528.423L815.131 524.978L817.119 521.533L812.968 522.173Z" fill="#FEE2BB"/>
<path opacity="0.8" d="M1014.8 490.647L1018.23 487.412L1022.99 488.191L1020.75 484.218L1022.99 480.246L1018.23 480.984L1014.8 477.782L1014.12 482.249L1009.77 484.218L1014.12 486.18L1014.8 490.647Z" fill="white"/>
<path opacity="0.8" d="M500.418 609.002L506.063 603.619L514.065 604.884L510.292 598.277L514.065 591.67L506.063 592.935L500.418 587.56L499.275 594.978L491.959 598.277L499.275 601.585L500.418 609.002Z" fill="white"/>
<path opacity="0.8" d="M1154.09 520.163L1159.35 517.78L1154.09 515.388L1153.25 510.046L1149.14 513.913L1143.34 512.997L1146.09 517.78L1143.34 522.595L1149.14 521.679L1153.25 525.546L1154.09 520.163Z" fill="white"/>
<path opacity="0.8" d="M1023.57 365.393L1026.01 367.647L1026.47 364.51L1029.55 363.107L1026.47 361.705L1026.01 358.576L1023.57 360.821L1020.22 360.302L1021.82 363.107L1020.22 365.92L1023.57 365.393Z" fill="white"/>
<path opacity="0.8" d="M541.639 7.67679L537.295 3.56677L536.381 9.26566L530.736 11.8273L536.381 14.389L537.295 20.0879L541.639 15.9373L547.812 16.9263L544.919 11.8273L547.812 6.69589L541.639 7.67679Z" fill="white"/>
<path opacity="0.8" d="M41.3178 109.292L44.2546 104.161L38.0732 105.15L33.6944 100.999L32.7712 106.73L27.2141 109.292L32.7712 111.862L33.6944 117.553L38.0732 113.443L44.2546 114.391L41.3178 109.292Z" fill="#FFEBC9"/>
<path opacity="0.8" d="M663.868 478.147L668.098 474.142L674.121 475.05L671.307 470.097L674.121 465.144L668.098 466.092L663.868 462.088L662.998 467.641L657.502 470.097L662.998 472.594L663.868 478.147Z" fill="white"/>
<path opacity="0.8" d="M282.954 413.927L287.983 418.669L289.012 412.095L295.492 409.177L289.012 406.226L287.983 399.651L282.954 404.434L275.858 403.307L279.217 409.177L275.858 415.046L282.954 413.927Z" fill="#FBC78E"/>
<path opacity="0.8" d="M1178.41 364.161L1175.89 361.81L1175.36 365.077L1172.16 366.553L1175.36 368.028L1175.89 371.295L1178.41 368.912L1182 369.503L1180.32 366.553L1182 363.602L1178.41 364.161Z" fill="white"/>
<path opacity="0.8" d="M108.987 754.692L115.652 743.06L101.584 745.313L91.639 735.893L89.5815 748.896L76.7703 754.692L89.5815 760.497L91.639 773.499L101.584 764.08L115.652 766.325L108.987 754.692Z" fill="#FBC78E"/>
<path opacity="0.8" d="M233.283 547.863L239.236 537.422L226.653 539.391L217.658 530.953L215.829 542.626L204.39 547.863L215.829 553.1L217.658 564.765L226.653 556.294L239.236 558.296L233.283 547.863Z" fill="#FFEBC9"/>
<path opacity="0.8" d="M1325.17 4.78284L1324.45 0L1320.75 3.47769L1315.56 2.63462L1318.04 6.92296L1315.56 11.2113L1320.75 10.4007L1324.45 13.8784L1325.17 9.06308L1329.9 6.92296L1325.17 4.78284Z" fill="white"/>
<path opacity="0.8" d="M1169.73 22.6254L1172.47 25.2276L1173.05 21.6364L1176.6 20.0232L1173.05 18.41L1172.47 14.8269L1169.73 17.4291L1165.84 16.8292L1167.67 20.0232L1165.84 23.2253L1169.73 22.6254Z" fill="#FEE2BB"/>
<path opacity="0.8" d="M442.289 80.5869L445.525 83.6106L446.175 79.3952L450.325 77.5307L446.175 75.6338L445.525 71.4508L442.289 74.4745L437.787 73.7693L439.924 77.5307L437.787 81.2921L442.289 80.5869Z" fill="#FFEBC9"/>
<path opacity="0.8" d="M257.753 83.5053L260.884 80.5221L265.377 81.2193L263.24 77.5308L265.377 73.8423L260.884 74.5395L257.753 71.5563L257.068 75.6663L253.032 77.5308L257.068 79.3953L257.753 83.5053Z" fill="white"/>
<path opacity="0.8" d="M576.898 165.421L579 161.733L574.533 162.438L571.332 159.415L570.726 163.565L566.646 165.421L570.726 167.254L571.332 171.396L574.533 168.413L579 169.118L576.898 165.421Z" fill="white"/>
<path opacity="0.8" d="M321.457 183.977L317.07 179.827L316.155 185.558L310.59 188.128L316.155 190.657L317.07 196.389L321.457 192.238L327.63 193.219L324.693 188.128L327.63 182.997L321.457 183.977Z" fill="#FEE2BB"/>
<path opacity="0.8" d="M1373.39 173.317L1375.41 175.279L1375.86 172.58L1378.45 171.38L1375.86 170.188L1375.41 167.513L1373.39 169.451L1370.45 168.988L1371.82 171.38L1370.45 173.771L1373.39 173.317Z" fill="white"/>
<path opacity="0.8" d="M1028.53 110.151L1030.98 112.437L1031.44 109.268L1034.57 107.906L1031.44 106.495L1030.98 103.334L1028.53 105.62L1025.18 105.085L1026.78 107.906L1025.18 110.678L1028.53 110.151Z" fill="white"/>
<path opacity="0.8" d="M140.861 101.388L147.957 94.6354L157.981 96.2567L153.25 87.9556L157.981 79.6302L147.957 81.211L140.861 74.4988L139.375 83.7726L130.266 87.9556L139.375 92.1061L140.861 101.388Z" fill="#FEE2BB"/>
<path opacity="0.8" d="M672.415 109.016L678.746 103.042L687.706 104.444L683.467 97.0674L687.706 89.6499L678.746 91.0605L672.415 85.0859L671.122 93.3384L663.006 97.0674L671.122 100.756L672.415 109.016Z" fill="#FFEBC9"/>
<path opacity="0.8" d="M1237.99 133.612L1240.92 136.36L1241.5 132.558L1245.2 130.88L1241.5 129.185L1240.92 125.392L1237.99 128.132L1233.91 127.499L1235.82 130.88L1233.91 134.252L1237.99 133.612Z" fill="#FFEBC9"/>
<path opacity="0.8" d="M288.37 1102.48L283.34 1107.22L276.245 1106.13L279.604 1111.97L276.245 1117.87L283.34 1116.75L288.37 1121.5L289.399 1114.92L295.844 1111.97L289.399 1109.05L288.37 1102.48Z" fill="white"/>
<path opacity="0.8" d="M151.509 1301.13L155.932 1305.35L156.856 1299.52L162.65 1296.91L156.856 1294.28L155.932 1288.41L151.509 1292.67L145.187 1291.68L148.159 1296.91L145.187 1302.12L151.509 1301.13Z" fill="white"/>
<path opacity="0.8" d="M357.113 702.965L364.208 709.718L365.65 700.436L374.804 696.253L365.65 692.11L364.208 682.796L357.113 689.549L347.054 687.927L351.819 696.253L347.054 704.554L357.113 702.965Z" fill="#FEE2BB"/>
<path opacity="0.8" d="M656.702 593.73L654.337 596.016L650.908 595.448L652.508 598.261L650.908 601.074L654.337 600.515L656.702 602.825L657.238 599.664L660.29 598.261L657.238 596.851L656.702 593.73Z" fill="white"/>
<path opacity="0.8" d="M875.266 406.388L872.329 403.575L871.757 407.442L867.941 409.16L871.757 410.879L872.329 414.746L875.266 411.941L879.451 412.606L877.473 409.16L879.451 405.715L875.266 406.388Z" fill="white"/>
<path opacity="0.8" d="M1170.13 629.674L1168.12 627.704L1167.66 630.371L1165.03 631.603L1167.66 632.762L1168.12 635.47L1170.13 633.532L1173.04 633.994L1171.66 631.603L1173.04 629.179L1170.13 629.674Z" fill="white"/>
<path opacity="0.8" d="M1613.31 1590L1612.09 1582.61L1606.44 1587.95L1598.44 1586.69L1602.25 1593.3L1598.44 1599.9L1606.44 1598.64L1612.09 1603.98L1613.31 1596.59L1620.55 1593.3L1613.31 1590Z" fill="#FEE2BB"/>
<path opacity="0.8" d="M1482.5 24.6845L1488.94 21.7661L1482.5 18.8154L1481.47 12.241L1476.44 16.9833L1469.35 15.897L1472.7 21.7661L1469.35 27.6353L1476.44 26.5166L1481.47 31.2589L1482.5 24.6845Z" fill="#FFEBC9"/>
<path opacity="0.8" d="M1213.98 1559.93L1209.48 1555.71L1208.57 1561.54L1202.82 1564.14L1208.57 1566.75L1209.48 1572.62L1213.98 1568.36L1220.27 1569.38L1217.26 1564.14L1220.27 1558.94L1213.98 1559.93Z" fill="white"/>
<path opacity="0.8" d="M1580.07 1087.29L1582.32 1085.18L1585.48 1085.67L1583.99 1083.04L1585.48 1080.4L1582.32 1080.93L1580.07 1078.78L1579.62 1081.73L1576.75 1083.04L1579.62 1084.34L1580.07 1087.29Z" fill="#FFEBC9"/>
<path opacity="0.8" d="M320.578 1357.33L317.378 1360.32L312.911 1359.62L315.012 1363.34L312.911 1366.99L317.378 1366.3L320.578 1369.32L321.185 1365.17L325.3 1363.34L321.185 1361.44L320.578 1357.33Z" fill="white"/>
<path opacity="0.8" d="M1593.92 524.427L1590.11 517.82L1593.92 511.213L1585.91 512.478L1580.23 507.103L1579.05 514.521L1571.81 517.82L1579.05 521.128L1580.23 528.545L1585.91 523.162L1593.92 524.427Z" fill="white"/>
<path opacity="0.8" d="M1589.29 398.987L1593.68 394.836L1599.85 395.825L1596.91 390.726L1599.85 385.595L1593.68 386.584L1589.29 382.474L1588.37 388.164L1582.77 390.726L1588.37 393.296L1589.29 398.987Z" fill="#FFEBC9"/>
<path opacity="0.8" d="M1787.42 471.435L1790.24 466.482L1784.29 467.422L1780.02 463.417L1779.14 468.97L1773.69 471.435L1779.14 473.931L1780.02 479.484L1784.29 475.48L1790.24 476.388L1787.42 471.435Z" fill="#FEE2BB"/>
<path opacity="0.8" d="M1422.13 388.205L1431.04 379.734L1443.71 381.736L1437.72 371.295L1443.71 360.862L1431.04 362.823L1422.13 354.393L1420.3 366.066L1408.79 371.295L1420.3 376.531L1422.13 388.205Z" fill="white"/>
<path opacity="0.8" d="M1545.05 139.319L1547.19 135.63L1542.69 136.335L1539.56 133.312L1538.88 137.462L1534.83 139.319L1538.88 141.151L1539.56 145.293L1542.69 142.31L1547.19 143.015L1545.05 139.319Z" fill="white"/>
<path opacity="0.8" d="M1433.93 1224.85L1429.58 1220.7L1428.67 1226.43L1423.02 1228.96L1428.67 1231.52L1429.58 1237.25L1433.93 1233.1L1440.11 1234.09L1437.21 1228.96L1440.11 1223.86L1433.93 1224.85Z" fill="white"/>
<path opacity="0.8" d="M1784.74 111.878L1791.08 105.903L1800 107.306L1795.81 99.929L1800 92.5115L1791.08 93.914L1784.74 87.9395L1783.45 96.2L1775.29 99.929L1783.45 103.617L1784.74 111.878Z" fill="white"/>
<path opacity="0.8" d="M1020.75 745.905L1015.11 740.603L1013.96 747.948L1006.73 751.247L1013.96 754.555L1015.11 761.899L1020.75 756.589L1028.68 757.822L1024.95 751.247L1028.68 744.681L1020.75 745.905Z" fill="#FFEBC9"/>
<path opacity="0.8" d="M1370.31 731.135L1365.28 726.384L1364.29 732.959L1357.81 735.91L1364.29 738.828L1365.28 745.402L1370.31 740.62L1377.4 741.746L1374.05 735.91L1377.4 730.008L1370.31 731.135Z" fill="#FBC78E"/>
<path opacity="0.8" d="M1779.52 1561.88L1777.16 1559.63L1776.62 1562.79L1773.58 1564.19L1776.62 1565.56L1777.16 1568.69L1779.52 1566.45L1782.92 1566.97L1781.35 1564.19L1782.92 1561.39L1779.52 1561.88Z" fill="#FFEBC9"/>
<path opacity="0.8" d="M1716.77 611.288L1722.41 605.946L1730.33 607.211L1726.56 600.677L1730.33 594.07L1722.41 595.335L1716.77 589.992L1715.59 597.369L1708.38 600.677L1715.59 603.944L1716.77 611.288Z" fill="white"/>
<path opacity="0.8" d="M1731.28 686.898L1729.04 684.79L1728.58 687.741L1725.73 689.038L1728.58 690.343L1729.04 693.294L1731.28 691.186L1734.49 691.681L1732.96 689.038L1734.49 686.403L1731.28 686.898Z" fill="white"/>
</svg>
